<?xml version="1.0" encoding="UTF-8" standalone="no"?>
<!-- Created with Inkscape (http://www.inkscape.org/) -->

<svg
   xmlns:dc="http://purl.org/dc/elements/1.1/"
   xmlns:cc="http://creativecommons.org/ns#"
   xmlns:rdf="http://www.w3.org/1999/02/22-rdf-syntax-ns#"
   xmlns:svg="http://www.w3.org/2000/svg"
   xmlns="http://www.w3.org/2000/svg"
   xmlns:sodipodi="http://sodipodi.sourceforge.net/DTD/sodipodi-0.dtd"
   xmlns:inkscape="http://www.inkscape.org/namespaces/inkscape"
   width="129.89284mm"
   height="129.89285mm"
   viewBox="0 0 129.89284 129.89285"
   version="1.1"
   id="svg8"
   inkscape:version="0.92.3 (2405546, 2018-03-11)"
   sodipodi:docname="minev2.svg">
  <defs
     id="defs2" />
  <sodipodi:namedview
     id="base"
     pagecolor="#ffffff"
     bordercolor="#666666"
     borderopacity="1.0"
     inkscape:pageopacity="0.0"
     inkscape:pageshadow="2"
     inkscape:zoom="0.49497475"
     inkscape:cx="115.42776"
     inkscape:cy="131.72421"
     inkscape:document-units="mm"
     inkscape:current-layer="layer1"
     showgrid="false"
     inkscape:window-width="1920"
     inkscape:window-height="1017"
     inkscape:window-x="-8"
     inkscape:window-y="-8"
     inkscape:window-maximized="1"
     showborder="false"
     inkscape:pagecheckerboard="true"
     fit-margin-top="0"
     fit-margin-left="0"
     fit-margin-right="0"
     fit-margin-bottom="0" />
  <metadata
     id="metadata5">
    <rdf:RDF>
      <cc:Work
         rdf:about="">
        <dc:format>image/svg+xml</dc:format>
        <dc:type
           rdf:resource="http://purl.org/dc/dcmitype/StillImage" />
        <dc:title></dc:title>
      </cc:Work>
    </rdf:RDF>
  </metadata>
  <g
     inkscape:label="Layer 1"
     inkscape:groupmode="layer"
     id="layer1"
     transform="translate(126.42977,-41.471251)">
    <path
       style="opacity:1;vector-effect:none;fill:#000000;fill-opacity:1;stroke:none;stroke-width:0.30435807;stroke-linecap:butt;stroke-linejoin:miter;stroke-miterlimit:4;stroke-dasharray:none;stroke-dashoffset:0;stroke-opacity:1"
       d="m -68.432275,41.471251 v 10.235036 a 55.219253,55.219253 0 0 0 -26.852622,11.082528 l -7.208863,-7.208864 -9.82731,9.827307 7.23625,7.236251 a 55.219253,55.219253 0 0 0 -11.1249,26.825232 h -10.22005 V 113.3666 h 10.23504 a 55.219253,55.219253 0 0 0 11.08253,26.85263 l -7.20887,7.20886 9.82731,9.82731 7.23625,-7.23625 a 55.219253,55.219253 0 0 0 26.825235,11.1249 v 10.22005 h 13.897857 v -10.23504 a 55.219253,55.219253 0 0 0 26.85263,-11.08252 l 7.20886,7.20886 9.8273,-9.82731 -7.23625,-7.23625 A 55.219253,55.219253 0 0 0 -6.7569678,113.3666 h 10.22004 V 99.468741 h -10.23503 A 55.219253,55.219253 0 0 0 -17.854488,72.61612 l 7.20886,-7.208862 -9.8273,-9.827307 -7.23625,7.236251 a 55.219253,55.219253 0 0 0 -26.82524,-11.124901 v -10.22005 z"
       id="path827"
       inkscape:connector-curvature="0" />
  </g>
</svg>
